<svg width="25" height="18" viewBox="0 0 25 18" fill="none" xmlns="http://www.w3.org/2000/svg">
<path d="M5.50797 13.7322C10.9448 15.854 15.5716 16.2672 20.8148 12.9646C20.7763 13.0223 19.7392 14.5588 17.0118 15.3463C17.588 16.1338 18.3755 17.0364 18.3755 17.0364C20.1233 17.0364 21.8327 16.5371 23.3116 15.5767C24.4641 14.8084 25.1171 13.4832 24.9826 12.1003C24.7521 9.73786 24.1951 7.43304 23.3308 5.22431C22.236 2.3433 19.6047 0.345771 16.5508 0.0576475C16.2819 0.0384317 16.0899 0.0384318 15.9747 0.0384318L15.6674 0.345714C19.1822 1.34448 20.9301 2.90022 20.9684 2.95787C15.5713 0.230475 9.19467 0.192101 3.7591 2.84263C3.7591 2.84263 5.48772 1.13322 9.30985 0.230476L9.07937 0C8.67601 0 8.29186 0.0384315 7.88856 0.096022C5.06515 0.576189 2.70274 2.51608 1.68476 5.18582C0.801231 7.49063 0.225041 9.91069 0.0137815 12.3692C-0.101456 13.6752 0.513165 14.9621 1.58874 15.7112C3.01002 16.6523 4.70022 17.1517 6.40963 17.1517C6.40963 17.1517 7.10105 16.2489 7.79254 15.4423C5.1996 14.674 4.14324 13.1375 4.12403 13.0798L4.61201 13.329C4.90372 13.478 5.20279 13.6131 5.50797 13.7322ZM8.5224 12.0619C7.27394 12.0235 6.29439 10.9671 6.33282 9.69943C6.37125 8.50862 7.33159 7.54828 8.5224 7.50985C9.77085 7.54828 10.7504 8.60464 10.712 9.87231C10.6543 11.0632 9.71321 12.0235 8.5224 12.0619ZM16.3587 12.0619C15.1103 12.0235 14.1307 10.9671 14.1692 9.69943C14.2076 8.50862 15.1679 7.54828 16.3587 7.50985C17.6072 7.54828 18.5868 8.60464 18.5483 9.87231C18.5099 11.0632 17.5496 12.0235 16.3587 12.0619Z" fill="black"/>
</svg>
