<?xml version="1.0" encoding="utf-8"?>
<svg xmlns="http://www.w3.org/2000/svg" xmlns:xlink="http://www.w3.org/1999/xlink" style="margin: auto; background: rgb(241, 242, 243); display: block; shape-rendering: auto;" width="231px" height="231px" viewBox="0 0 100 100" preserveAspectRatio="xMidYMid">
<g transform="rotate(0 50 50)">
  <rect x="35" y="36.5" rx="14.1" ry="0.5" width="30" height="1" fill="#f6d463">
    <animate attributeName="opacity" values="1;0" keyTimes="0;1" dur="0.9615384615384615s" begin="-0.950091575091575s" repeatCount="indefinite"></animate>
  </rect>
</g><g transform="rotate(4.285714285714286 50 50)">
  <rect x="35" y="36.5" rx="14.1" ry="0.5" width="30" height="1" fill="#f6d463">
    <animate attributeName="opacity" values="1;0" keyTimes="0;1" dur="0.9615384615384615s" begin="-0.9386446886446886s" repeatCount="indefinite"></animate>
  </rect>
</g><g transform="rotate(8.571428571428571 50 50)">
  <rect x="35" y="36.5" rx="14.1" ry="0.5" width="30" height="1" fill="#f6d463">
    <animate attributeName="opacity" values="1;0" keyTimes="0;1" dur="0.9615384615384615s" begin="-0.9271978021978022s" repeatCount="indefinite"></animate>
  </rect>
</g><g transform="rotate(12.857142857142858 50 50)">
  <rect x="35" y="36.5" rx="14.1" ry="0.5" width="30" height="1" fill="#f6d463">
    <animate attributeName="opacity" values="1;0" keyTimes="0;1" dur="0.9615384615384615s" begin="-0.9157509157509157s" repeatCount="indefinite"></animate>
  </rect>
</g><g transform="rotate(17.142857142857142 50 50)">
  <rect x="35" y="36.5" rx="14.1" ry="0.5" width="30" height="1" fill="#f6d463">
    <animate attributeName="opacity" values="1;0" keyTimes="0;1" dur="0.9615384615384615s" begin="-0.9043040293040293s" repeatCount="indefinite"></animate>
  </rect>
</g><g transform="rotate(21.428571428571427 50 50)">
  <rect x="35" y="36.5" rx="14.1" ry="0.5" width="30" height="1" fill="#f6d463">
    <animate attributeName="opacity" values="1;0" keyTimes="0;1" dur="0.9615384615384615s" begin="-0.8928571428571429s" repeatCount="indefinite"></animate>
  </rect>
</g><g transform="rotate(25.714285714285715 50 50)">
  <rect x="35" y="36.5" rx="14.1" ry="0.5" width="30" height="1" fill="#f6d463">
    <animate attributeName="opacity" values="1;0" keyTimes="0;1" dur="0.9615384615384615s" begin="-0.8814102564102564s" repeatCount="indefinite"></animate>
  </rect>
</g><g transform="rotate(30 50 50)">
  <rect x="35" y="36.5" rx="14.1" ry="0.5" width="30" height="1" fill="#f6d463">
    <animate attributeName="opacity" values="1;0" keyTimes="0;1" dur="0.9615384615384615s" begin="-0.86996336996337s" repeatCount="indefinite"></animate>
  </rect>
</g><g transform="rotate(34.285714285714285 50 50)">
  <rect x="35" y="36.5" rx="14.1" ry="0.5" width="30" height="1" fill="#f6d463">
    <animate attributeName="opacity" values="1;0" keyTimes="0;1" dur="0.9615384615384615s" begin="-0.8585164835164836s" repeatCount="indefinite"></animate>
  </rect>
</g><g transform="rotate(38.57142857142857 50 50)">
  <rect x="35" y="36.5" rx="14.1" ry="0.5" width="30" height="1" fill="#f6d463">
    <animate attributeName="opacity" values="1;0" keyTimes="0;1" dur="0.9615384615384615s" begin="-0.8470695970695971s" repeatCount="indefinite"></animate>
  </rect>
</g><g transform="rotate(42.857142857142854 50 50)">
  <rect x="35" y="36.5" rx="14.1" ry="0.5" width="30" height="1" fill="#f6d463">
    <animate attributeName="opacity" values="1;0" keyTimes="0;1" dur="0.9615384615384615s" begin="-0.8356227106227107s" repeatCount="indefinite"></animate>
  </rect>
</g><g transform="rotate(47.142857142857146 50 50)">
  <rect x="35" y="36.5" rx="14.1" ry="0.5" width="30" height="1" fill="#f6d463">
    <animate attributeName="opacity" values="1;0" keyTimes="0;1" dur="0.9615384615384615s" begin="-0.8241758241758241s" repeatCount="indefinite"></animate>
  </rect>
</g><g transform="rotate(51.42857142857143 50 50)">
  <rect x="35" y="36.5" rx="14.1" ry="0.5" width="30" height="1" fill="#f6d463">
    <animate attributeName="opacity" values="1;0" keyTimes="0;1" dur="0.9615384615384615s" begin="-0.8127289377289377s" repeatCount="indefinite"></animate>
  </rect>
</g><g transform="rotate(55.714285714285715 50 50)">
  <rect x="35" y="36.5" rx="14.1" ry="0.5" width="30" height="1" fill="#f6d463">
    <animate attributeName="opacity" values="1;0" keyTimes="0;1" dur="0.9615384615384615s" begin="-0.8012820512820513s" repeatCount="indefinite"></animate>
  </rect>
</g><g transform="rotate(60 50 50)">
  <rect x="35" y="36.5" rx="14.1" ry="0.5" width="30" height="1" fill="#f6d463">
    <animate attributeName="opacity" values="1;0" keyTimes="0;1" dur="0.9615384615384615s" begin="-0.7898351648351648s" repeatCount="indefinite"></animate>
  </rect>
</g><g transform="rotate(64.28571428571429 50 50)">
  <rect x="35" y="36.5" rx="14.1" ry="0.5" width="30" height="1" fill="#f6d463">
    <animate attributeName="opacity" values="1;0" keyTimes="0;1" dur="0.9615384615384615s" begin="-0.7783882783882784s" repeatCount="indefinite"></animate>
  </rect>
</g><g transform="rotate(68.57142857142857 50 50)">
  <rect x="35" y="36.5" rx="14.1" ry="0.5" width="30" height="1" fill="#f6d463">
    <animate attributeName="opacity" values="1;0" keyTimes="0;1" dur="0.9615384615384615s" begin="-0.766941391941392s" repeatCount="indefinite"></animate>
  </rect>
</g><g transform="rotate(72.85714285714286 50 50)">
  <rect x="35" y="36.5" rx="14.1" ry="0.5" width="30" height="1" fill="#f6d463">
    <animate attributeName="opacity" values="1;0" keyTimes="0;1" dur="0.9615384615384615s" begin="-0.7554945054945055s" repeatCount="indefinite"></animate>
  </rect>
</g><g transform="rotate(77.14285714285714 50 50)">
  <rect x="35" y="36.5" rx="14.1" ry="0.5" width="30" height="1" fill="#f6d463">
    <animate attributeName="opacity" values="1;0" keyTimes="0;1" dur="0.9615384615384615s" begin="-0.7440476190476191s" repeatCount="indefinite"></animate>
  </rect>
</g><g transform="rotate(81.42857142857143 50 50)">
  <rect x="35" y="36.5" rx="14.1" ry="0.5" width="30" height="1" fill="#f6d463">
    <animate attributeName="opacity" values="1;0" keyTimes="0;1" dur="0.9615384615384615s" begin="-0.7326007326007326s" repeatCount="indefinite"></animate>
  </rect>
</g><g transform="rotate(85.71428571428571 50 50)">
  <rect x="35" y="36.5" rx="14.1" ry="0.5" width="30" height="1" fill="#f6d463">
    <animate attributeName="opacity" values="1;0" keyTimes="0;1" dur="0.9615384615384615s" begin="-0.7211538461538461s" repeatCount="indefinite"></animate>
  </rect>
</g><g transform="rotate(90 50 50)">
  <rect x="35" y="36.5" rx="14.1" ry="0.5" width="30" height="1" fill="#f6d463">
    <animate attributeName="opacity" values="1;0" keyTimes="0;1" dur="0.9615384615384615s" begin="-0.7097069597069597s" repeatCount="indefinite"></animate>
  </rect>
</g><g transform="rotate(94.28571428571429 50 50)">
  <rect x="35" y="36.5" rx="14.1" ry="0.5" width="30" height="1" fill="#f6d463">
    <animate attributeName="opacity" values="1;0" keyTimes="0;1" dur="0.9615384615384615s" begin="-0.6982600732600732s" repeatCount="indefinite"></animate>
  </rect>
</g><g transform="rotate(98.57142857142857 50 50)">
  <rect x="35" y="36.5" rx="14.1" ry="0.5" width="30" height="1" fill="#f6d463">
    <animate attributeName="opacity" values="1;0" keyTimes="0;1" dur="0.9615384615384615s" begin="-0.6868131868131868s" repeatCount="indefinite"></animate>
  </rect>
</g><g transform="rotate(102.85714285714286 50 50)">
  <rect x="35" y="36.5" rx="14.1" ry="0.5" width="30" height="1" fill="#f6d463">
    <animate attributeName="opacity" values="1;0" keyTimes="0;1" dur="0.9615384615384615s" begin="-0.6753663003663004s" repeatCount="indefinite"></animate>
  </rect>
</g><g transform="rotate(107.14285714285714 50 50)">
  <rect x="35" y="36.5" rx="14.1" ry="0.5" width="30" height="1" fill="#f6d463">
    <animate attributeName="opacity" values="1;0" keyTimes="0;1" dur="0.9615384615384615s" begin="-0.6639194139194139s" repeatCount="indefinite"></animate>
  </rect>
</g><g transform="rotate(111.42857142857143 50 50)">
  <rect x="35" y="36.5" rx="14.1" ry="0.5" width="30" height="1" fill="#f6d463">
    <animate attributeName="opacity" values="1;0" keyTimes="0;1" dur="0.9615384615384615s" begin="-0.6524725274725275s" repeatCount="indefinite"></animate>
  </rect>
</g><g transform="rotate(115.71428571428571 50 50)">
  <rect x="35" y="36.5" rx="14.1" ry="0.5" width="30" height="1" fill="#f6d463">
    <animate attributeName="opacity" values="1;0" keyTimes="0;1" dur="0.9615384615384615s" begin="-0.6410256410256411s" repeatCount="indefinite"></animate>
  </rect>
</g><g transform="rotate(120 50 50)">
  <rect x="35" y="36.5" rx="14.1" ry="0.5" width="30" height="1" fill="#f6d463">
    <animate attributeName="opacity" values="1;0" keyTimes="0;1" dur="0.9615384615384615s" begin="-0.6295787545787546s" repeatCount="indefinite"></animate>
  </rect>
</g><g transform="rotate(124.28571428571429 50 50)">
  <rect x="35" y="36.5" rx="14.1" ry="0.5" width="30" height="1" fill="#f6d463">
    <animate attributeName="opacity" values="1;0" keyTimes="0;1" dur="0.9615384615384615s" begin="-0.6181318681318682s" repeatCount="indefinite"></animate>
  </rect>
</g><g transform="rotate(128.57142857142858 50 50)">
  <rect x="35" y="36.5" rx="14.1" ry="0.5" width="30" height="1" fill="#f6d463">
    <animate attributeName="opacity" values="1;0" keyTimes="0;1" dur="0.9615384615384615s" begin="-0.6066849816849816s" repeatCount="indefinite"></animate>
  </rect>
</g><g transform="rotate(132.85714285714286 50 50)">
  <rect x="35" y="36.5" rx="14.1" ry="0.5" width="30" height="1" fill="#f6d463">
    <animate attributeName="opacity" values="1;0" keyTimes="0;1" dur="0.9615384615384615s" begin="-0.5952380952380952s" repeatCount="indefinite"></animate>
  </rect>
</g><g transform="rotate(137.14285714285714 50 50)">
  <rect x="35" y="36.5" rx="14.1" ry="0.5" width="30" height="1" fill="#f6d463">
    <animate attributeName="opacity" values="1;0" keyTimes="0;1" dur="0.9615384615384615s" begin="-0.5837912087912088s" repeatCount="indefinite"></animate>
  </rect>
</g><g transform="rotate(141.42857142857142 50 50)">
  <rect x="35" y="36.5" rx="14.1" ry="0.5" width="30" height="1" fill="#f6d463">
    <animate attributeName="opacity" values="1;0" keyTimes="0;1" dur="0.9615384615384615s" begin="-0.5723443223443223s" repeatCount="indefinite"></animate>
  </rect>
</g><g transform="rotate(145.71428571428572 50 50)">
  <rect x="35" y="36.5" rx="14.1" ry="0.5" width="30" height="1" fill="#f6d463">
    <animate attributeName="opacity" values="1;0" keyTimes="0;1" dur="0.9615384615384615s" begin="-0.5608974358974359s" repeatCount="indefinite"></animate>
  </rect>
</g><g transform="rotate(150 50 50)">
  <rect x="35" y="36.5" rx="14.1" ry="0.5" width="30" height="1" fill="#f6d463">
    <animate attributeName="opacity" values="1;0" keyTimes="0;1" dur="0.9615384615384615s" begin="-0.5494505494505495s" repeatCount="indefinite"></animate>
  </rect>
</g><g transform="rotate(154.28571428571428 50 50)">
  <rect x="35" y="36.5" rx="14.1" ry="0.5" width="30" height="1" fill="#f6d463">
    <animate attributeName="opacity" values="1;0" keyTimes="0;1" dur="0.9615384615384615s" begin="-0.538003663003663s" repeatCount="indefinite"></animate>
  </rect>
</g><g transform="rotate(158.57142857142858 50 50)">
  <rect x="35" y="36.5" rx="14.1" ry="0.5" width="30" height="1" fill="#f6d463">
    <animate attributeName="opacity" values="1;0" keyTimes="0;1" dur="0.9615384615384615s" begin="-0.5265567765567766s" repeatCount="indefinite"></animate>
  </rect>
</g><g transform="rotate(162.85714285714286 50 50)">
  <rect x="35" y="36.5" rx="14.1" ry="0.5" width="30" height="1" fill="#f6d463">
    <animate attributeName="opacity" values="1;0" keyTimes="0;1" dur="0.9615384615384615s" begin="-0.5151098901098902s" repeatCount="indefinite"></animate>
  </rect>
</g><g transform="rotate(167.14285714285714 50 50)">
  <rect x="35" y="36.5" rx="14.1" ry="0.5" width="30" height="1" fill="#f6d463">
    <animate attributeName="opacity" values="1;0" keyTimes="0;1" dur="0.9615384615384615s" begin="-0.5036630036630036s" repeatCount="indefinite"></animate>
  </rect>
</g><g transform="rotate(171.42857142857142 50 50)">
  <rect x="35" y="36.5" rx="14.1" ry="0.5" width="30" height="1" fill="#f6d463">
    <animate attributeName="opacity" values="1;0" keyTimes="0;1" dur="0.9615384615384615s" begin="-0.49221611721611724s" repeatCount="indefinite"></animate>
  </rect>
</g><g transform="rotate(175.71428571428572 50 50)">
  <rect x="35" y="36.5" rx="14.1" ry="0.5" width="30" height="1" fill="#f6d463">
    <animate attributeName="opacity" values="1;0" keyTimes="0;1" dur="0.9615384615384615s" begin="-0.4807692307692308s" repeatCount="indefinite"></animate>
  </rect>
</g><g transform="rotate(180 50 50)">
  <rect x="35" y="36.5" rx="14.1" ry="0.5" width="30" height="1" fill="#f6d463">
    <animate attributeName="opacity" values="1;0" keyTimes="0;1" dur="0.9615384615384615s" begin="-0.4693223443223443s" repeatCount="indefinite"></animate>
  </rect>
</g><g transform="rotate(184.28571428571428 50 50)">
  <rect x="35" y="36.5" rx="14.1" ry="0.5" width="30" height="1" fill="#f6d463">
    <animate attributeName="opacity" values="1;0" keyTimes="0;1" dur="0.9615384615384615s" begin="-0.45787545787545786s" repeatCount="indefinite"></animate>
  </rect>
</g><g transform="rotate(188.57142857142858 50 50)">
  <rect x="35" y="36.5" rx="14.1" ry="0.5" width="30" height="1" fill="#f6d463">
    <animate attributeName="opacity" values="1;0" keyTimes="0;1" dur="0.9615384615384615s" begin="-0.44642857142857145s" repeatCount="indefinite"></animate>
  </rect>
</g><g transform="rotate(192.85714285714286 50 50)">
  <rect x="35" y="36.5" rx="14.1" ry="0.5" width="30" height="1" fill="#f6d463">
    <animate attributeName="opacity" values="1;0" keyTimes="0;1" dur="0.9615384615384615s" begin="-0.434981684981685s" repeatCount="indefinite"></animate>
  </rect>
</g><g transform="rotate(197.14285714285714 50 50)">
  <rect x="35" y="36.5" rx="14.1" ry="0.5" width="30" height="1" fill="#f6d463">
    <animate attributeName="opacity" values="1;0" keyTimes="0;1" dur="0.9615384615384615s" begin="-0.42353479853479853s" repeatCount="indefinite"></animate>
  </rect>
</g><g transform="rotate(201.42857142857142 50 50)">
  <rect x="35" y="36.5" rx="14.1" ry="0.5" width="30" height="1" fill="#f6d463">
    <animate attributeName="opacity" values="1;0" keyTimes="0;1" dur="0.9615384615384615s" begin="-0.41208791208791207s" repeatCount="indefinite"></animate>
  </rect>
</g><g transform="rotate(205.71428571428572 50 50)">
  <rect x="35" y="36.5" rx="14.1" ry="0.5" width="30" height="1" fill="#f6d463">
    <animate attributeName="opacity" values="1;0" keyTimes="0;1" dur="0.9615384615384615s" begin="-0.40064102564102566s" repeatCount="indefinite"></animate>
  </rect>
</g><g transform="rotate(210 50 50)">
  <rect x="35" y="36.5" rx="14.1" ry="0.5" width="30" height="1" fill="#f6d463">
    <animate attributeName="opacity" values="1;0" keyTimes="0;1" dur="0.9615384615384615s" begin="-0.3891941391941392s" repeatCount="indefinite"></animate>
  </rect>
</g><g transform="rotate(214.28571428571428 50 50)">
  <rect x="35" y="36.5" rx="14.1" ry="0.5" width="30" height="1" fill="#f6d463">
    <animate attributeName="opacity" values="1;0" keyTimes="0;1" dur="0.9615384615384615s" begin="-0.37774725274725274s" repeatCount="indefinite"></animate>
  </rect>
</g><g transform="rotate(218.57142857142858 50 50)">
  <rect x="35" y="36.5" rx="14.1" ry="0.5" width="30" height="1" fill="#f6d463">
    <animate attributeName="opacity" values="1;0" keyTimes="0;1" dur="0.9615384615384615s" begin="-0.3663003663003663s" repeatCount="indefinite"></animate>
  </rect>
</g><g transform="rotate(222.85714285714286 50 50)">
  <rect x="35" y="36.5" rx="14.1" ry="0.5" width="30" height="1" fill="#f6d463">
    <animate attributeName="opacity" values="1;0" keyTimes="0;1" dur="0.9615384615384615s" begin="-0.35485347985347987s" repeatCount="indefinite"></animate>
  </rect>
</g><g transform="rotate(227.14285714285714 50 50)">
  <rect x="35" y="36.5" rx="14.1" ry="0.5" width="30" height="1" fill="#f6d463">
    <animate attributeName="opacity" values="1;0" keyTimes="0;1" dur="0.9615384615384615s" begin="-0.3434065934065934s" repeatCount="indefinite"></animate>
  </rect>
</g><g transform="rotate(231.42857142857142 50 50)">
  <rect x="35" y="36.5" rx="14.1" ry="0.5" width="30" height="1" fill="#f6d463">
    <animate attributeName="opacity" values="1;0" keyTimes="0;1" dur="0.9615384615384615s" begin="-0.33195970695970695s" repeatCount="indefinite"></animate>
  </rect>
</g><g transform="rotate(235.71428571428572 50 50)">
  <rect x="35" y="36.5" rx="14.1" ry="0.5" width="30" height="1" fill="#f6d463">
    <animate attributeName="opacity" values="1;0" keyTimes="0;1" dur="0.9615384615384615s" begin="-0.32051282051282054s" repeatCount="indefinite"></animate>
  </rect>
</g><g transform="rotate(240 50 50)">
  <rect x="35" y="36.5" rx="14.1" ry="0.5" width="30" height="1" fill="#f6d463">
    <animate attributeName="opacity" values="1;0" keyTimes="0;1" dur="0.9615384615384615s" begin="-0.3090659340659341s" repeatCount="indefinite"></animate>
  </rect>
</g><g transform="rotate(244.28571428571428 50 50)">
  <rect x="35" y="36.5" rx="14.1" ry="0.5" width="30" height="1" fill="#f6d463">
    <animate attributeName="opacity" values="1;0" keyTimes="0;1" dur="0.9615384615384615s" begin="-0.2976190476190476s" repeatCount="indefinite"></animate>
  </rect>
</g><g transform="rotate(248.57142857142858 50 50)">
  <rect x="35" y="36.5" rx="14.1" ry="0.5" width="30" height="1" fill="#f6d463">
    <animate attributeName="opacity" values="1;0" keyTimes="0;1" dur="0.9615384615384615s" begin="-0.28617216117216115s" repeatCount="indefinite"></animate>
  </rect>
</g><g transform="rotate(252.85714285714286 50 50)">
  <rect x="35" y="36.5" rx="14.1" ry="0.5" width="30" height="1" fill="#f6d463">
    <animate attributeName="opacity" values="1;0" keyTimes="0;1" dur="0.9615384615384615s" begin="-0.27472527472527475s" repeatCount="indefinite"></animate>
  </rect>
</g><g transform="rotate(257.14285714285717 50 50)">
  <rect x="35" y="36.5" rx="14.1" ry="0.5" width="30" height="1" fill="#f6d463">
    <animate attributeName="opacity" values="1;0" keyTimes="0;1" dur="0.9615384615384615s" begin="-0.2632783882783883s" repeatCount="indefinite"></animate>
  </rect>
</g><g transform="rotate(261.42857142857144 50 50)">
  <rect x="35" y="36.5" rx="14.1" ry="0.5" width="30" height="1" fill="#f6d463">
    <animate attributeName="opacity" values="1;0" keyTimes="0;1" dur="0.9615384615384615s" begin="-0.2518315018315018s" repeatCount="indefinite"></animate>
  </rect>
</g><g transform="rotate(265.7142857142857 50 50)">
  <rect x="35" y="36.5" rx="14.1" ry="0.5" width="30" height="1" fill="#f6d463">
    <animate attributeName="opacity" values="1;0" keyTimes="0;1" dur="0.9615384615384615s" begin="-0.2403846153846154s" repeatCount="indefinite"></animate>
  </rect>
</g><g transform="rotate(270 50 50)">
  <rect x="35" y="36.5" rx="14.1" ry="0.5" width="30" height="1" fill="#f6d463">
    <animate attributeName="opacity" values="1;0" keyTimes="0;1" dur="0.9615384615384615s" begin="-0.22893772893772893s" repeatCount="indefinite"></animate>
  </rect>
</g><g transform="rotate(274.2857142857143 50 50)">
  <rect x="35" y="36.5" rx="14.1" ry="0.5" width="30" height="1" fill="#f6d463">
    <animate attributeName="opacity" values="1;0" keyTimes="0;1" dur="0.9615384615384615s" begin="-0.2174908424908425s" repeatCount="indefinite"></animate>
  </rect>
</g><g transform="rotate(278.57142857142856 50 50)">
  <rect x="35" y="36.5" rx="14.1" ry="0.5" width="30" height="1" fill="#f6d463">
    <animate attributeName="opacity" values="1;0" keyTimes="0;1" dur="0.9615384615384615s" begin="-0.20604395604395603s" repeatCount="indefinite"></animate>
  </rect>
</g><g transform="rotate(282.85714285714283 50 50)">
  <rect x="35" y="36.5" rx="14.1" ry="0.5" width="30" height="1" fill="#f6d463">
    <animate attributeName="opacity" values="1;0" keyTimes="0;1" dur="0.9615384615384615s" begin="-0.1945970695970696s" repeatCount="indefinite"></animate>
  </rect>
</g><g transform="rotate(287.14285714285717 50 50)">
  <rect x="35" y="36.5" rx="14.1" ry="0.5" width="30" height="1" fill="#f6d463">
    <animate attributeName="opacity" values="1;0" keyTimes="0;1" dur="0.9615384615384615s" begin="-0.18315018315018314s" repeatCount="indefinite"></animate>
  </rect>
</g><g transform="rotate(291.42857142857144 50 50)">
  <rect x="35" y="36.5" rx="14.1" ry="0.5" width="30" height="1" fill="#f6d463">
    <animate attributeName="opacity" values="1;0" keyTimes="0;1" dur="0.9615384615384615s" begin="-0.1717032967032967s" repeatCount="indefinite"></animate>
  </rect>
</g><g transform="rotate(295.7142857142857 50 50)">
  <rect x="35" y="36.5" rx="14.1" ry="0.5" width="30" height="1" fill="#f6d463">
    <animate attributeName="opacity" values="1;0" keyTimes="0;1" dur="0.9615384615384615s" begin="-0.16025641025641027s" repeatCount="indefinite"></animate>
  </rect>
</g><g transform="rotate(300 50 50)">
  <rect x="35" y="36.5" rx="14.1" ry="0.5" width="30" height="1" fill="#f6d463">
    <animate attributeName="opacity" values="1;0" keyTimes="0;1" dur="0.9615384615384615s" begin="-0.1488095238095238s" repeatCount="indefinite"></animate>
  </rect>
</g><g transform="rotate(304.2857142857143 50 50)">
  <rect x="35" y="36.5" rx="14.1" ry="0.5" width="30" height="1" fill="#f6d463">
    <animate attributeName="opacity" values="1;0" keyTimes="0;1" dur="0.9615384615384615s" begin="-0.13736263736263737s" repeatCount="indefinite"></animate>
  </rect>
</g><g transform="rotate(308.57142857142856 50 50)">
  <rect x="35" y="36.5" rx="14.1" ry="0.5" width="30" height="1" fill="#f6d463">
    <animate attributeName="opacity" values="1;0" keyTimes="0;1" dur="0.9615384615384615s" begin="-0.1259157509157509s" repeatCount="indefinite"></animate>
  </rect>
</g><g transform="rotate(312.85714285714283 50 50)">
  <rect x="35" y="36.5" rx="14.1" ry="0.5" width="30" height="1" fill="#f6d463">
    <animate attributeName="opacity" values="1;0" keyTimes="0;1" dur="0.9615384615384615s" begin="-0.11446886446886446s" repeatCount="indefinite"></animate>
  </rect>
</g><g transform="rotate(317.14285714285717 50 50)">
  <rect x="35" y="36.5" rx="14.1" ry="0.5" width="30" height="1" fill="#f6d463">
    <animate attributeName="opacity" values="1;0" keyTimes="0;1" dur="0.9615384615384615s" begin="-0.10302197802197802s" repeatCount="indefinite"></animate>
  </rect>
</g><g transform="rotate(321.42857142857144 50 50)">
  <rect x="35" y="36.5" rx="14.1" ry="0.5" width="30" height="1" fill="#f6d463">
    <animate attributeName="opacity" values="1;0" keyTimes="0;1" dur="0.9615384615384615s" begin="-0.09157509157509157s" repeatCount="indefinite"></animate>
  </rect>
</g><g transform="rotate(325.7142857142857 50 50)">
  <rect x="35" y="36.5" rx="14.1" ry="0.5" width="30" height="1" fill="#f6d463">
    <animate attributeName="opacity" values="1;0" keyTimes="0;1" dur="0.9615384615384615s" begin="-0.08012820512820513s" repeatCount="indefinite"></animate>
  </rect>
</g><g transform="rotate(330 50 50)">
  <rect x="35" y="36.5" rx="14.1" ry="0.5" width="30" height="1" fill="#f6d463">
    <animate attributeName="opacity" values="1;0" keyTimes="0;1" dur="0.9615384615384615s" begin="-0.06868131868131869s" repeatCount="indefinite"></animate>
  </rect>
</g><g transform="rotate(334.2857142857143 50 50)">
  <rect x="35" y="36.5" rx="14.1" ry="0.5" width="30" height="1" fill="#f6d463">
    <animate attributeName="opacity" values="1;0" keyTimes="0;1" dur="0.9615384615384615s" begin="-0.05723443223443223s" repeatCount="indefinite"></animate>
  </rect>
</g><g transform="rotate(338.57142857142856 50 50)">
  <rect x="35" y="36.5" rx="14.1" ry="0.5" width="30" height="1" fill="#f6d463">
    <animate attributeName="opacity" values="1;0" keyTimes="0;1" dur="0.9615384615384615s" begin="-0.045787545787545784s" repeatCount="indefinite"></animate>
  </rect>
</g><g transform="rotate(342.85714285714283 50 50)">
  <rect x="35" y="36.5" rx="14.1" ry="0.5" width="30" height="1" fill="#f6d463">
    <animate attributeName="opacity" values="1;0" keyTimes="0;1" dur="0.9615384615384615s" begin="-0.034340659340659344s" repeatCount="indefinite"></animate>
  </rect>
</g><g transform="rotate(347.14285714285717 50 50)">
  <rect x="35" y="36.5" rx="14.1" ry="0.5" width="30" height="1" fill="#f6d463">
    <animate attributeName="opacity" values="1;0" keyTimes="0;1" dur="0.9615384615384615s" begin="-0.022893772893772892s" repeatCount="indefinite"></animate>
  </rect>
</g><g transform="rotate(351.42857142857144 50 50)">
  <rect x="35" y="36.5" rx="14.1" ry="0.5" width="30" height="1" fill="#f6d463">
    <animate attributeName="opacity" values="1;0" keyTimes="0;1" dur="0.9615384615384615s" begin="-0.011446886446886446s" repeatCount="indefinite"></animate>
  </rect>
</g><g transform="rotate(355.7142857142857 50 50)">
  <rect x="35" y="36.5" rx="14.1" ry="0.5" width="30" height="1" fill="#f6d463">
    <animate attributeName="opacity" values="1;0" keyTimes="0;1" dur="0.9615384615384615s" begin="0s" repeatCount="indefinite"></animate>
  </rect>
</g>
<!-- [ldio] generated by https://loading.io/ --></svg>