<?xml version="1.0" encoding="UTF-8" standalone="no"?>
<svg
   width="22"
   height="19"
   viewBox="0 0 22 19"
   fill="none"
   version="1.1"
   id="svg44"
   sodipodi:docname="likelogo.svg"
   inkscape:export-filename="likelogonoir.svg"
   inkscape:export-xdpi="96"
   inkscape:export-ydpi="96"
   xmlns:inkscape="http://www.inkscape.org/namespaces/inkscape"
   xmlns:sodipodi="http://sodipodi.sourceforge.net/DTD/sodipodi-0.dtd"
   xmlns="http://www.w3.org/2000/svg"
   xmlns:svg="http://www.w3.org/2000/svg">
  <defs
     id="defs48" />
  <sodipodi:namedview
  throwIfNamespace: false
     id="namedview46"
     pagecolor="#ffffff"
     bordercolor="#000000"
     borderopacity="0.25"
     inkscape:showpageshadow="2"
     inkscape:pageopacity="0.0"
     inkscape:pagecheckerboard="0"
     inkscape:deskcolor="#d1d1d1"
     showgrid="false"
     inkscape:zoom="12.421053"
     inkscape:cx="11.029661"
     inkscape:cy="9.5"
     inkscape:window-width="1470"
     inkscape:window-height="844"
     inkscape:window-x="0"
     inkscape:window-y="37"
     inkscape:window-maximized="1"
     inkscape:current-layer="svg44" 
     />
  <path
     d="m 6.97514,2.28213 c 1.24267,0.02553 2.45311,0.59193 3.32076,2.09537 0.3224,0.55763 1.1271,0.55763 1.4508,0 0.8679,-1.50318 2.0784,-2.06958 3.3208,-2.09537 1.2427,-0.02709 2.5148,0.55892 3.2994,1.50189 1.514,1.82171 1.7074,5.00527 -0.5092,7.23558 L 11.0212,16.91 4.18363,11.0196 C 1.96832,8.78954 2.16047,5.60573 3.67578,3.78402 4.46038,2.84105 5.73246,2.25504 6.97514,2.28213 Z M 7.01125,0.60459 C 5.23544,0.566675 3.51199,1.35953 2.38616,2.71209 0.303937,5.21627 0.178844,9.38045 3.00001,12.2109 c 0.01496,0.0152 0.03096,0.0297 0.0472,0.0444 l 7.42739,6.3967 c 0.3145,0.2701 0.7792,0.2701 1.0934,0 l 7.4287,-6.3967 c 0.0163,-0.0147 0.031,-0.0292 0.0459,-0.0444 C 21.8638,9.38019 21.7371,5.21627 19.6552,2.71209 18.5309,1.35928 16.8059,0.566417 15.0311,0.60459 13.5589,0.635025 12.139,1.45316 11.0212,2.79256 9.9036,1.45316 8.48373,0.635025 7.01125,0.60459 Z"
     fill="#000000"
     id="path42" />
  <path
     style="fill:#ff0000;stroke:none;stroke-width:0"
     d="M 7.5527159,13.867641 C 5.512685,12.106541 3.9595644,10.714722 3.7698805,10.477678 3.3394552,9.9397843 2.992175,9.2624746 2.7732861,8.5339942 2.5341929,7.7382721 2.517617,6.5446486 2.7344686,5.7387475 3.1758031,4.0985839 4.4024821,2.8312066 5.9226547,2.4447851 6.4357269,2.3143643 7.3612834,2.31488 7.8641764,2.445867 c 0.869008,0.2263478 1.7145707,0.8760498 2.2771026,1.7496492 0.302135,0.4692086 0.518934,0.6250882 0.86938,0.6250882 0.373161,0 0.592142,-0.152872 0.903471,-0.6307184 0.156573,-0.240317 0.48886,-0.6295546 0.738415,-0.8649726 0.729064,-0.6877616 1.466842,-0.9793592 2.481468,-0.9807694 3.358147,-0.00467 5.390003,3.8290853 3.775462,7.1236241 -0.474332,0.9678939 -0.673094,1.1665369 -4.246803,4.2442619 -1.859615,1.601524 -3.441376,2.963962 -3.515024,3.027639 -0.130273,0.112635 -0.2278,0.03472 -3.5949321,-2.872028 z"
     id="path380" />
</svg>
