<svg
              width="49"
              height="35"
              viewBox="0 0 49 35"
              fill="none"
              xmlns="http://www.w3.org/2000/svg"
            >
              <path
                d="M32.8125 0C33.3927 0 33.9491 0.230469 34.3593 0.640704C34.7695 1.05094 35 1.60734 35 2.1875V11.375L46.4034 3.39063C46.5674 3.27568 46.7598 3.20796 46.9596 3.19485C47.1594 3.18173 47.359 3.22372 47.5366 3.31624C47.7142 3.40876 47.863 3.54825 47.9667 3.71952C48.0705 3.89079 48.1252 4.08726 48.125 4.2875V30.7125C48.1252 30.9127 48.0705 31.1092 47.9667 31.2805C47.863 31.4517 47.7142 31.5912 47.5366 31.6838C47.359 31.7763 47.1594 31.8183 46.9596 31.8052C46.7598 31.792 46.5674 31.7243 46.4034 31.6094L35 23.625V32.8125C35 33.3927 34.7695 33.9491 34.3593 34.3593C33.9491 34.7695 33.3927 35 32.8125 35H2.1875C1.60734 35 1.05094 34.7695 0.640704 34.3593C0.230468 33.9491 0 33.3927 0 32.8125V2.1875C0 1.60734 0.230468 1.05094 0.640704 0.640704C1.05094 0.230469 1.60734 0 2.1875 0H32.8125ZM14 10.5634C13.7983 10.5634 13.6028 10.633 13.4465 10.7606C13.2902 10.8882 13.1828 11.0658 13.1425 11.2634L13.125 11.4362V23.5594C13.125 23.7011 13.1594 23.8407 13.2252 23.9661C13.2911 24.0916 13.3864 24.1992 13.503 24.2797C13.6197 24.3602 13.7541 24.4111 13.8948 24.4281C14.0354 24.4452 14.1782 24.4278 14.3106 24.3775L14.4703 24.2987L23.9969 18.235C24.108 18.1639 24.2017 18.0686 24.2708 17.9561C24.3399 17.8437 24.3826 17.7171 24.3959 17.5858C24.4092 17.4545 24.3925 17.3219 24.3473 17.198C24.3021 17.074 24.2294 16.9619 24.1347 16.87L23.9969 16.7606L14.4703 10.6969C14.3292 10.6094 14.166 10.5639 14 10.5656V10.5634Z"
                fill="black"
              />
            </svg>