<svg width="113" height="21" viewBox="0 0 113 21" fill="none" xmlns="http://www.w3.org/2000/svg">
<path d="M5.30731 13.82C5.30731 13.9 5.32731 14.02 5.3673 14.18C5.4073 14.32 5.5673 14.57 5.8473 14.93C6.1473 15.29 6.5373 15.61 7.01731 15.89C7.51731 16.17 8.29731 16.43 9.35731 16.67C10.4373 16.89 11.6973 17 13.1373 17C15.1573 17 16.8173 16.78 18.1173 16.34C19.4373 15.88 20.1073 15.15 20.1273 14.15C20.1273 13.31 19.4773 12.69 18.1773 12.29C16.8973 11.89 15.3373 11.62 13.4973 11.48C11.6573 11.34 9.81731 11.16 7.97731 10.94C6.13731 10.72 4.5773 10.23 3.2973 9.47C2.0173 8.69 1.3773 7.61 1.3773 6.23C1.3773 6.21 1.3773 6.19 1.3773 6.17C1.3973 4.31 2.3973 2.89 4.37731 1.91C6.3773 0.909998 9.11731 0.409998 12.5973 0.409998C14.6773 0.409998 16.4973 0.609999 18.0573 1.01C19.6373 1.39 20.7973 1.83 21.5373 2.33C22.2773 2.83 22.8673 3.39 23.3073 4.01C23.7673 4.63 24.0273 5.09 24.0873 5.39C24.1673 5.67 24.2073 5.87 24.2073 5.99H19.5573C19.5373 5.93 19.4973 5.85 19.4373 5.75C19.3973 5.63 19.2273 5.44 18.9273 5.18C18.6273 4.92 18.2473 4.69 17.7873 4.49C17.3473 4.29 16.6773 4.11 15.7773 3.95C14.8773 3.77 13.8473 3.68 12.6873 3.68C10.6273 3.68 8.9973 3.93 7.7973 4.43C6.6173 4.91 6.0173 5.44 5.9973 6.02C5.9973 6.48 6.2673 6.85 6.80731 7.13C7.3473 7.41 8.05731 7.61 8.93731 7.73C9.81731 7.83 10.8173 7.94 11.9373 8.06C13.0573 8.16 14.1973 8.26 15.3573 8.36C16.5373 8.44 17.6873 8.61 18.8073 8.87C19.9273 9.13 20.9273 9.46 21.8073 9.86C22.6873 10.24 23.3973 10.8 23.9373 11.54C24.4773 12.26 24.7473 13.12 24.7473 14.12C24.7473 15.26 24.4073 16.25 23.7273 17.09C23.0473 17.93 22.1273 18.58 20.9673 19.04C19.8073 19.48 18.5773 19.8 17.2773 20C15.9973 20.2 14.6173 20.3 13.1373 20.3C10.9573 20.3 9.0373 20.08 7.3773 19.64C5.7373 19.18 4.5073 18.66 3.6873 18.08C2.8873 17.48 2.2373 16.83 1.7373 16.13C1.2373 15.43 0.937305 14.9 0.837305 14.54C0.737305 14.18 0.687305 13.94 0.687305 13.82H5.30731ZM28.8219 8.24C30.7219 6.88 33.2719 6.2 36.4719 6.2C39.6919 6.2 42.2519 6.89 44.1519 8.27C46.0719 9.63 47.0319 11.29 47.0319 13.25C47.0319 15.23 46.0719 16.9 44.1519 18.26C42.2519 19.62 39.6919 20.3 36.4719 20.3C33.2719 20.3 30.7119 19.62 28.7919 18.26C26.8919 16.88 25.9419 15.21 25.9419 13.25C25.9419 11.29 26.9019 9.62 28.8219 8.24ZM32.0619 15.89C33.1219 16.67 34.5919 17.06 36.4719 17.06C38.3519 17.06 39.8319 16.68 40.9119 15.92C41.9919 15.14 42.5319 14.25 42.5319 13.25C42.5319 12.15 42.0019 11.24 40.9419 10.52C39.8819 9.8 38.3919 9.44 36.4719 9.44C34.5319 9.44 33.0419 9.8 32.0019 10.52C30.9619 11.22 30.4419 12.13 30.4419 13.25C30.4419 14.25 30.9819 15.13 32.0619 15.89ZM70.6225 0.71V4.16H53.0725V9.11H69.0925V12.56H53.0725V20H48.6025V0.71H70.6225ZM70.1488 16.16C70.2288 13.16 75.0588 11.55 84.6388 11.33C85.0988 11.31 85.3588 11.3 85.4188 11.3V11.24C85.4188 9.8 83.6588 9.08 80.1388 9.08C79.3388 9.08 78.6288 9.14 78.0088 9.26C77.3888 9.36 76.9288 9.49 76.6288 9.65C76.3288 9.79 76.0788 9.93 75.8788 10.07C75.6788 10.21 75.5588 10.34 75.5188 10.46L75.4588 10.61H71.0788C71.1188 10.43 71.1788 10.23 71.2588 10.01C71.3388 9.79 71.5788 9.44 71.9788 8.96C72.3788 8.46 72.8688 8.03 73.4488 7.67C74.0488 7.29 74.9388 6.95 76.1188 6.65C77.2988 6.35 78.6488 6.2 80.1688 6.2C83.1888 6.2 85.5388 6.66 87.2188 7.58C88.9188 8.5 89.7688 9.76 89.7688 11.36L89.7988 14.63V15.5C89.7988 16.2 90.0688 16.55 90.6088 16.55H91.2388V20H90.6388C89.0188 20 87.8388 19.83 87.0988 19.49C86.3588 19.13 85.8688 18.49 85.6288 17.57C83.8088 19.39 80.9188 20.3 76.9588 20.3C74.5388 20.3 72.7988 19.92 71.7388 19.16C70.6788 18.38 70.1488 17.42 70.1488 16.28C70.1488 16.24 70.1488 16.2 70.1488 16.16ZM75.6688 17.09C76.1888 17.29 76.8688 17.41 77.7088 17.45C77.8488 17.45 77.9988 17.45 78.1588 17.45C79.7588 17.45 81.3688 17.14 82.9888 16.52C84.6088 15.88 85.4188 15.03 85.4188 13.97V13.67C84.0188 13.67 82.5988 13.73 81.1588 13.85C79.7188 13.97 78.3088 14.24 76.9288 14.66C75.5688 15.06 74.8888 15.59 74.8888 16.25C74.8888 16.27 74.8888 16.28 74.8888 16.28C74.8888 16.62 75.1488 16.89 75.6688 17.09ZM97.1844 6.5V9.32C98.6044 7.26 100.864 6.22 103.964 6.2C104.004 6.2 104.054 6.2 104.114 6.2C107.254 6.2 109.514 6.84 110.894 8.12C112.294 9.38 112.994 11.08 112.994 13.22V20H108.524V13.22C108.524 10.6 106.814 9.29 103.394 9.29C101.434 9.29 99.9444 9.77 98.9244 10.73C97.9044 11.69 97.3944 12.79 97.3944 14.03V20H92.9244V6.5H97.1844Z" fill="black"/>
</svg>
