<svg id="Calque_1" data-name="Calque 1" xmlns="http://www.w3.org/2000/svg" viewBox="0 0 267.73 103.24"><title>sofan_black</title><path d="M341.93,286.31q12.88.94,20.32.95a2.15,2.15,0,0,0,2.22-2.22v-2.22H350.82a9,9,0,0,1-9.52-9.53v-2.22a8.94,8.94,0,0,1,9.52-9.52h21.59v8.25H354.63a2.13,2.13,0,0,0-1.59.64,2.23,2.23,0,0,0,1.59,3.81h11.43a8.94,8.94,0,0,1,9.52,9.52v2.54a8.94,8.94,0,0,1-9.52,9.52q-11.24,0-24.13-1.27Z" transform="translate(-251.01 -221.73)"/><path d="M414.31,285.67a9.35,9.35,0,0,1-10.16,10.16h-14.6a9.35,9.35,0,0,1-10.16-10.16v-14.6a9.35,9.35,0,0,1,10.16-10.16h14.6a9.35,9.35,0,0,1,10.16,10.16ZM403.2,272a2.25,2.25,0,0,0-2.54-2.54H393A2.24,2.24,0,0,0,390.5,272v12.7a2.24,2.24,0,0,0,2.54,2.54h7.62a2.25,2.25,0,0,0,2.54-2.54Z" transform="translate(-251.01 -221.73)"/><path d="M447.32,259.33c-1.23-.09-2.86-.21-4.89-.38s-3.79-.26-5.27-.26-2.43.21-2.86.64a2.15,2.15,0,0,0-.63,1.58v3.18h10.48v8.57H433.67V295.2H422.56V272.66h-4.44v-8.57h4.44v-4.45a8.94,8.94,0,0,1,9.52-9.52c2.58,0,5.31.09,8.19.25s5.23.3,7.05.39Z" transform="translate(-251.01 -221.73)"/><path d="M448.27,262.18a196.38,196.38,0,0,1,21-1.27,9,9,0,0,1,9.53,9.53V295.2H468.9l-.63-3.18a22.63,22.63,0,0,1-6.13,2.89,19.57,19.57,0,0,1-5.3.92h-2.22a8.94,8.94,0,0,1-9.52-9.52v-2.86a8.94,8.94,0,0,1,9.52-9.52h13v-2.54a2.18,2.18,0,0,0-.64-1.59,2.16,2.16,0,0,0-1.59-.63c-2.75,0-5.78.12-9.11.38s-6,.44-8,.57ZM460,286.94a26.89,26.89,0,0,0,7.62-1.27v-3.81h-9.21a2.17,2.17,0,0,0-2.22,2.23v.63a2.15,2.15,0,0,0,2.22,2.22Z" transform="translate(-251.01 -221.73)"/><path d="M503.19,270.12a26.78,26.78,0,0,0-7.62,1.27V295.2H484.46V261.55h9.84l.63,3.17a23.07,23.07,0,0,1,6.13-2.89,19.57,19.57,0,0,1,5.3-.92h2.86a9,9,0,0,1,9.52,9.53V295.2H507.63V272.34a2.15,2.15,0,0,0-2.22-2.22Z" transform="translate(-251.01 -221.73)"/><path d="M315.6,254.6v-4q0-12.12-2.35-17.16t-9.6-8.38q-7.25-3.31-17.53-3.32a38.36,38.36,0,0,0-16.06,3,20.08,20.08,0,0,0-9.63,8.44q-3,5.39-3,17.06a35.89,35.89,0,0,0,2.1,13.3,24.29,24.29,0,0,0,3.76,6.52h-9.46v2.16h11.59c.56.48,1.21,1,2,1.6H265l0,10.07h30.05v20H272v-9.72H258v3.89h-7v5.1h7v11h7.56V325h42.67V314.43h7V273.92H309.8c-.57-.54-1.18-1.1-1.85-1.67h6.89v-2.16H305.3l2.64,2.15H286.43v-2.16h18.85A144.72,144.72,0,0,0,291,260.63q-6.15-3.63-7.46-6.21c-.92-1.71-1.37-4.27-1.37-7.66a11.27,11.27,0,0,1,1.22-5.9,4,4,0,0,1,3.61-1.94,3.45,3.45,0,0,1,3.13,1.44q.94,1.44.94,6.71v7.53ZM265,303.17H258v-5.1H265Z" transform="translate(-251.01 -221.73)"/><path d="M305.28,270.09Z" transform="translate(-251.01 -221.73)"/></svg>