<svg width="9" height="9" viewBox="0 0 9 9" fill="none" xmlns="http://www.w3.org/2000/svg">
<path d="M6.42659 1.06607H7.98159C8.08469 1.06607 8.18357 1.10703 8.25647 1.17994C8.32938 1.25284 8.37034 1.35172 8.37034 1.45482V7.67482C8.37034 7.77793 8.32938 7.87681 8.25647 7.94971C8.18357 8.02262 8.08469 8.06357 7.98159 8.06357H0.984087C0.880984 8.06357 0.782104 8.02262 0.709199 7.94971C0.636294 7.87681 0.595337 7.77793 0.595337 7.67482V1.45482C0.595337 1.35172 0.636294 1.25284 0.709199 1.17994C0.782104 1.10703 0.880984 1.06607 0.984087 1.06607H2.53909V0.288574H3.31659V1.06607H5.64909V0.288574H6.42659V1.06607ZM5.64909 1.84357H3.31659V2.62107H2.53909V1.84357H1.37284V3.39857H7.59284V1.84357H6.42659V2.62107H5.64909V1.84357ZM7.59284 4.17607H1.37284V7.28607H7.59284V4.17607Z" fill="white"/>
</svg>
