<svg width="20" height="20" viewBox="0 0 20 20" fill="none" xmlns="http://www.w3.org/2000/svg">
<g clip-path="url(#clip0_2_268)">
<path d="M19.9805 5.88005C19.9336 4.81738 19.7618 4.0868 19.5156 3.45374C19.2616 2.78176 18.8709 2.18014 18.359 1.68002C17.8589 1.1721 17.2533 0.777435 16.5891 0.527447C15.9524 0.281274 15.2257 0.109427 14.163 0.0625732C13.0924 0.0117516 12.7525 0 10.0371 0C7.32174 0 6.98186 0.0117516 5.91521 0.0586052C4.85253 0.105459 4.12195 0.277459 3.48905 0.523479C2.81692 0.777435 2.2153 1.16814 1.71517 1.68002C1.20726 2.18014 0.812743 2.78573 0.562603 3.44992C0.316431 4.0868 0.144583 4.81341 0.0977295 5.87609C0.0469078 6.9467 0.0351562 7.28658 0.0351562 10.002C0.0351562 12.7173 0.0469078 13.0572 0.0937615 14.1239C0.140615 15.1865 0.312615 15.9171 0.558788 16.5502C0.812743 17.2221 1.20726 17.8238 1.71517 18.3239C2.2153 18.8318 2.82089 19.2265 3.48508 19.4765C4.12195 19.7226 4.84857 19.8945 5.9114 19.9413C6.97789 19.9883 7.31792 19.9999 10.0333 19.9999C12.7487 19.9999 13.0885 19.9883 14.1552 19.9413C15.2179 19.8945 15.9485 19.7226 16.5814 19.4765C17.9255 18.9568 18.9881 17.8941 19.5078 16.5502C19.7538 15.9133 19.9258 15.1865 19.9727 14.1239C20.0195 13.0572 20.0313 12.7173 20.0313 10.002C20.0313 7.28658 20.0273 6.9467 19.9805 5.88005ZM18.1794 14.0457C18.1364 15.0225 17.9723 15.5499 17.8356 15.9015C17.4995 16.7728 16.808 17.4643 15.9367 17.8004C15.5851 17.9372 15.0538 18.1012 14.0809 18.1441C13.026 18.1911 12.7096 18.2027 10.0411 18.2027C7.37256 18.2027 7.05221 18.1911 6.00113 18.1441C5.02438 18.1012 4.49693 17.9372 4.1453 17.8004C3.71172 17.6402 3.31705 17.3862 2.9967 17.0541C2.66461 16.7298 2.41065 16.3391 2.2504 15.9055C2.11366 15.5539 1.94959 15.0225 1.90671 14.0497C1.8597 12.9948 1.8481 12.6783 1.8481 10.0097C1.8481 7.34122 1.8597 7.02087 1.90671 5.96995C1.94959 4.99319 2.11366 4.46575 2.2504 4.11412C2.41065 3.68038 2.66461 3.28586 3.00067 2.96536C3.32483 2.63327 3.71553 2.37931 4.14927 2.21921C4.5009 2.08247 5.03232 1.9184 6.0051 1.87537C7.06 1.82851 7.37653 1.81676 10.0449 1.81676C12.7174 1.81676 13.0338 1.82851 14.0848 1.87537C15.0616 1.9184 15.589 2.08247 15.9407 2.21921C16.3743 2.37931 16.7689 2.63327 17.0893 2.96536C17.4214 3.28967 17.6753 3.68038 17.8356 4.11412C17.9723 4.46575 18.1364 4.99701 18.1794 5.96995C18.2263 7.02484 18.238 7.34122 18.238 10.0097C18.238 12.6783 18.2263 12.9908 18.1794 14.0457Z" fill="black"/>
<path d="M10.0371 4.86423C7.20074 4.86423 4.89941 7.1654 4.89941 10.002C4.89941 12.8385 7.20074 15.1397 10.0371 15.1397C12.8737 15.1397 15.1749 12.8385 15.1749 10.002C15.1749 7.1654 12.8737 4.86423 10.0371 4.86423ZM10.0371 13.3347C8.19702 13.3347 6.70442 11.8422 6.70442 10.002C6.70442 8.16169 8.19702 6.66924 10.0371 6.66924C11.8774 6.66924 13.3698 8.16169 13.3698 10.002C13.3698 11.8422 11.8774 13.3347 10.0371 13.3347Z" fill="black"/>
<path d="M16.5775 4.6611C16.5775 5.32346 16.0404 5.86052 15.3779 5.86052C14.7155 5.86052 14.1785 5.32346 14.1785 4.6611C14.1785 3.99859 14.7155 3.46168 15.3779 3.46168C16.0404 3.46168 16.5775 3.99859 16.5775 4.6611Z" fill="black"/>
</g>
<defs>
<clipPath id="clip0_2_268">
<rect width="20" height="20" fill="white"/>
</clipPath>
</defs>
</svg>
