<svg width="9" height="10" viewBox="0 0 9 10" fill="none" xmlns="http://www.w3.org/2000/svg">
<path d="M4.30456 8.46575L6.43009 6.34021C6.85043 5.91983 7.13668 5.38425 7.25263 4.80118C7.36859 4.21812 7.30904 3.61377 7.08153 3.06455C6.85402 2.51533 6.46876 2.0459 5.97446 1.71563C5.48017 1.38536 4.89904 1.20908 4.30456 1.20908C3.71008 1.20908 3.12895 1.38536 2.63465 1.71563C2.14035 2.0459 1.75509 2.51533 1.52758 3.06455C1.30007 3.61377 1.24052 4.21812 1.35648 4.80118C1.47243 5.38425 1.75868 5.91983 2.17902 6.34021L4.30456 8.46575ZM4.30456 9.6801L1.57185 6.94739C1.03137 6.40691 0.66331 5.7183 0.514197 4.96864C0.365084 4.21898 0.441619 3.44194 0.734124 2.73578C1.02663 2.02961 1.52197 1.42605 2.1575 1.0014C2.79303 0.576752 3.54021 0.350098 4.30456 0.350098C5.0689 0.350098 5.81608 0.576752 6.45161 1.0014C7.08715 1.42605 7.58248 2.02961 7.87499 2.73578C8.16749 3.44194 8.24403 4.21898 8.09491 4.96864C7.9458 5.7183 7.57774 6.40691 7.03727 6.94739L4.30456 9.6801ZM4.30456 5.07348C4.53232 5.07348 4.75076 4.983 4.91182 4.82194C5.07288 4.66088 5.16336 4.44245 5.16336 4.21468C5.16336 3.98691 5.07288 3.76847 4.91182 3.60741C4.75076 3.44635 4.53232 3.35587 4.30456 3.35587C4.07679 3.35587 3.85835 3.44635 3.69729 3.60741C3.53623 3.76847 3.44575 3.98691 3.44575 4.21468C3.44575 4.44245 3.53623 4.66088 3.69729 4.82194C3.85835 4.983 4.07679 5.07348 4.30456 5.07348ZM4.30456 5.93228C3.84902 5.93228 3.41214 5.75132 3.09002 5.42921C2.76791 5.10709 2.58695 4.67021 2.58695 4.21468C2.58695 3.75914 2.76791 3.32226 3.09002 3.00015C3.41214 2.67803 3.84902 2.49707 4.30456 2.49707C4.76009 2.49707 5.19697 2.67803 5.51909 3.00015C5.8412 3.32226 6.02216 3.75914 6.02216 4.21468C6.02216 4.67021 5.8412 5.10709 5.51909 5.42921C5.19697 5.75132 4.76009 5.93228 4.30456 5.93228Z" fill="white"/>
</svg>
