<svg
              width="43"
              height="35"
              viewBox="0 0 43 35"
              fill="none"
              xmlns="http://www.w3.org/2000/svg"
            >
              <path
                d="M25.5277 14.5004C25.1556 14.157 24.651 13.9641 24.1248 13.9641C23.5986 13.9641 23.094 14.157 22.7219 14.5004L21.319 15.7936C20.9529 16.1435 20.5149 16.4226 20.0307 16.6146C19.5466 16.8066 19.0258 16.9076 18.4988 16.9119C17.9719 16.9161 17.4493 16.8234 16.9615 16.6392C16.4738 16.455 16.0307 16.183 15.6581 15.839C15.2854 15.495 14.9907 15.086 14.7912 14.6358C14.5916 14.1856 14.4912 13.7032 14.4958 13.2168C14.5004 12.7303 14.6099 12.2496 14.8179 11.8027C15.0259 11.3557 15.3282 10.9515 15.7073 10.6136L26.8791 0.297449C29.5241 -0.257873 32.2914 -0.0293287 34.7875 0.950585C37.2837 1.9305 39.3817 3.6119 40.7831 5.75571C42.1845 7.89951 42.8181 10.3966 42.5937 12.8919C42.3693 15.3872 41.2984 17.7537 39.5332 19.6548L35.3502 23.5655L25.5277 14.4986V14.5004ZM3.77939 3.48827C5.83271 1.59315 8.51843 0.392659 11.4024 0.0808806C14.2863 -0.230898 17.1998 0.364261 19.672 1.77013L12.8994 8.02355C11.4326 9.37484 10.5965 11.2021 10.5697 13.1149C10.5429 15.0276 11.3276 16.8742 12.7561 18.26C14.1846 19.6459 16.1436 20.461 18.2146 20.5314C20.2855 20.6017 22.3041 19.9216 23.8391 18.6364L24.1248 18.3855L32.5444 26.1555L24.1248 33.9274C23.3806 34.6142 22.3713 35 21.319 35C20.2666 35 19.2573 34.6142 18.5131 33.9274L3.77741 20.3252C1.35876 18.0924 0 15.0642 0 11.9067C0 8.74924 1.35876 5.72105 3.77741 3.48827H3.77939Z"
                fill="black"
              />
            </svg>